<svg width="80" height="80" viewBox="0 0 80 80" fill="none" xmlns="http://www.w3.org/2000/svg">
<g clip-path="url(#clip0_32_3690)">
<path d="M66.6667 51.6667C62.5 51.6667 58.5 51 54.7667 49.7667C54.4333 49.6667 54.0667 49.6 53.7333 49.6C52.8667 49.6 52.0333 49.9333 51.3667 50.5667L44.0333 57.9C34.6 53.1 26.8667 45.4 22.0667 35.9667L29.4 28.6C30.3333 27.7 30.6 26.4 30.2333 25.2333C29 21.5 28.3333 17.5 28.3333 13.3333C28.3333 11.5 26.8333 10 25 10H13.3333C11.5 10 10 11.5 10 13.3333C10 44.6333 35.3667 70 66.6667 70C68.5 70 70 68.5 70 66.6667V55C70 53.1667 68.5 51.6667 66.6667 51.6667ZM16.7667 16.6667H21.7667C22 19.6 22.5 22.5 23.3 25.3L19.3 29.3333C17.9333 25.3 17.0667 21.0667 16.7667 16.6667V16.6667ZM63.3333 63.2333C58.9333 62.9333 54.6667 62.0667 50.6667 60.7L54.6667 56.7C57.5 57.5 60.4 58 63.3333 58.2V63.2333ZM40 10V43.3333L50 33.3333H70V10H40ZM63.3333 26.6667H46.6667V16.6667H63.3333V26.6667Z" fill="#0045A8"/>
</g>
<defs>
<clipPath id="clip0_32_3690">
<rect width="80" height="80" fill="white"/>
</clipPath>
</defs>
</svg>
