<svg width="79" height="80" viewBox="0 0 79 80" fill="none" xmlns="http://www.w3.org/2000/svg">
<path d="M39.0244 0C17.4732 0 0 16.58 0 37.0367C0.047991 42.655 1.37827 48.1837 3.88439 53.1806C6.39051 58.1775 10.0029 62.5038 14.4325 65.8133L14.5333 65.8833V80L27.8276 72.5267C31.1805 73.51 35.0309 74.0733 39.0114 74.0733H39.0244C60.5756 74.0733 78.0488 57.49 78.0488 37.04C78.0488 16.59 60.5756 0 39.0244 0ZM42.8976 49.8767L32.9626 39L13.5707 49.8667L34.9008 26.6667L45.0829 37.53L64.2341 26.6667L42.8976 49.8767Z" fill="#0045A8"/>
</svg>
