<svg width="34" height="34" viewBox="0 0 34 34" fill="none" xmlns="http://www.w3.org/2000/svg">
<circle cx="17" cy="17" r="17" fill="#FF0000"/>
<path fill-rule="evenodd" clip-rule="evenodd" d="M26.6054 10.5215C26.9446 10.8607 27.189 11.2829 27.3144 11.746C28.0359 14.6505 27.8692 19.2377 27.3284 22.2542C27.2031 22.7173 26.9586 23.1395 26.6194 23.4787C26.2801 23.818 25.858 24.0624 25.3949 24.1877C23.6995 24.6501 16.8762 24.6501 16.8762 24.6501C16.8762 24.6501 10.0528 24.6501 8.3575 24.1877C7.8944 24.0624 7.47221 23.818 7.13297 23.4787C6.79374 23.1395 6.54929 22.7173 6.42398 22.2542C5.69821 19.3624 5.89717 14.7724 6.40997 11.76C6.53528 11.2969 6.77973 10.8747 7.11896 10.5355C7.4582 10.1962 7.88039 9.95178 8.34348 9.82647C10.0388 9.36411 16.8622 9.3501 16.8622 9.3501C16.8622 9.3501 23.6855 9.3501 25.3808 9.81246C25.8439 9.93777 26.2661 10.1822 26.6054 10.5215ZM20.3509 17.0001L14.6905 20.2787V13.7215L20.3509 17.0001Z" fill="white"/>
</svg>
