<svg width="80" height="80" viewBox="0 0 80 80" fill="none" xmlns="http://www.w3.org/2000/svg">
<path d="M41.6333 34.2399V32.7399H46.1233V53.8132H43.5567C43.0486 53.8141 42.5609 53.6136 42.2004 53.2556C41.8399 52.8976 41.636 52.4113 41.6333 51.9032V51.9066C39.7591 53.2785 37.496 54.0166 35.1733 54.0132C32.2713 54.0132 29.4879 52.8608 27.4352 50.8094C25.3825 48.7579 24.2284 45.9753 24.2267 43.0732C24.2284 40.1711 25.3825 37.3885 27.4352 35.3371C29.4879 33.2856 32.2713 32.1332 35.1733 32.1332C37.4949 32.1306 39.7567 32.8686 41.63 34.2399H41.6333V34.2399ZM23.0633 25.9666V26.6499C23.0633 27.9232 22.8933 28.9632 22.0633 30.1832L21.9633 30.2966C21.6868 30.6067 21.4178 30.9234 21.1567 31.2466L6.74667 49.3332H23.0633V51.8932C23.0633 52.1456 23.0136 52.3956 22.9169 52.6287C22.8202 52.8619 22.6784 53.0737 22.4998 53.252C22.3212 53.4304 22.1091 53.5717 21.8758 53.668C21.6424 53.7643 21.3924 53.8137 21.14 53.8132H0V52.6066C0 51.1299 0.366667 50.4699 0.833333 49.7832L16.19 30.7666H0.64V25.9666H23.0667H23.0633ZM51.5667 53.8132C51.1423 53.8132 50.7354 53.6446 50.4353 53.3446C50.1352 53.0445 49.9667 52.6376 49.9667 52.2132V25.9666H54.77V53.8132H51.5667V53.8132ZM68.9767 31.9999C70.4238 31.9994 71.8569 32.2841 73.1941 32.8375C74.5313 33.3909 75.7463 34.2022 76.77 35.2252C77.7936 36.2482 78.6057 37.4628 79.1599 38.7996C79.7141 40.1365 79.9996 41.5694 80 43.0166C80.0004 44.4637 79.7158 45.8968 79.1624 47.234C78.609 48.5712 77.7977 49.7862 76.7747 50.8098C75.7517 51.8335 74.5371 52.6456 73.2002 53.1998C71.8634 53.754 70.4305 54.0394 68.9833 54.0399C66.0606 54.0408 63.2573 52.8806 61.19 50.8146C59.1228 48.7485 57.9609 45.9459 57.96 43.0232C57.9591 40.1005 59.1193 37.2972 61.1853 35.2299C63.2514 33.1626 66.054 32.0008 68.9767 31.9999V31.9999ZM35.1767 49.5099C36.0345 49.5294 36.8876 49.3773 37.6858 49.0625C38.484 48.7477 39.2113 48.2766 39.8248 47.6768C40.4384 47.077 40.926 46.3607 41.2588 45.5698C41.5917 44.779 41.7632 43.9296 41.7632 43.0716C41.7632 42.2135 41.5917 41.3641 41.2588 40.5733C40.926 39.7824 40.4384 39.0661 39.8248 38.4663C39.2113 37.8665 38.484 37.3954 37.6858 37.0806C36.8876 36.7658 36.0345 36.6137 35.1767 36.6332C33.4945 36.6715 31.8941 37.3666 30.7179 38.5699C29.5417 39.7731 28.8832 41.3889 28.8832 43.0716C28.8832 44.7542 29.5417 46.37 30.7179 47.5732C31.8941 48.7765 33.4945 49.4716 35.1767 49.5099V49.5099ZM68.9767 49.4999C70.6962 49.4999 72.3452 48.8168 73.5611 47.601C74.7769 46.3851 75.46 44.736 75.46 43.0166C75.46 41.2971 74.7769 39.648 73.5611 38.4321C72.3452 37.2163 70.6962 36.5332 68.9767 36.5332C67.2572 36.5332 65.6081 37.2163 64.3923 38.4321C63.1764 39.648 62.4933 41.2971 62.4933 43.0166C62.4933 44.736 63.1764 46.3851 64.3923 47.601C65.6081 48.8168 67.2572 49.4999 68.9767 49.4999V49.4999Z" fill="#0045A8"/>
</svg>
